# xmcd
#
# Track frame offsets:
#	150
#	17584
#	35551
#	54680
#	72610
#	90855
#	105104
#	122734
#	144890
#	169366
#	190176
#	216785
#	233916
#	249669
#	270062
#	289777
#	309582
#
# Disc length: 4361 seconds
#
# Revision: 0
# Processed by: cddbd v1.4PL0 Copyright (c) Steve Scherf et al.
# Submitted via: EasyCDDAExtractor 4.6.9.1
#
DISCID=e7110711
DTITLE=Collection - Best
DYEAR=1900
DGENRE=All
TTITLE0=вiдпусти
TTITLE1=Suzy
TTITLE2=квітка
TTITLE3=голос твiй
TTITLE4=поїзд "чужа любов"
TTITLE5=божевільні танці
TTITLE6=кожнетіло
TTITLE7=Cleaning out my closet
TTITLE8=Lose yourself
TTITLE9=5.12.2002 test
TTITLE10=Re-arranged
TTITLE11=How you remind me
TTITLE12=Chop suey
TTITLE13=Unbreak my heart              
TTITLE14=Don't speak
TTITLE15=без любви
TTITLE16=откровения
EXTD=
EXTT0=
EXTT1=
EXTT2=
EXTT3=
EXTT4=
EXTT5=
EXTT6=
EXTT7=
EXTT8=
EXTT9=
EXTT10=
EXTT11=
EXTT12=
EXTT13=
EXTT14=
EXTT15=
EXTT16=
PLAYORDER=
